PathFileType	4	(X/Y/Z)	Walk1.trc
DataRate	CameraRate	NumFrames	NumMarkers	Units	OrigDataRate	OrigDataStartFrame	OrigNumFrames
200.000000	200.000000	4	59	mm	200.000000	439	554
Frame#	Times		LBHD		C7		T10		RBack		LPSI		RPSI		LTB1		RCAR		LMT5		LLFC		LFHD		RWRR		LTH4		LUA1		RBHD		RElbowM		LElbowM		RUA1		RFA1		CLAV		RTH3		RACR1		LACR1		RWRU		RTH2		LWRU		LCAR		RFHD		RTB1		LFA1		RElbow		RTB2		RCAL		RTH4		RTB4		RToe		RTB3		RMT1		RLFC		RTH1		RMT5		LElbow		LTB4		RLMAL		STRN		LASI		LTB3		LWRR		LTH3		RASI		LLMAL		LTH1		LMT1		RMMAL		LCAL		LTH2		LTB2		LMMAL		LToe
			X1	Y1	Z1	X2	Y2	Z2	X3	Y3	Z3	X4	Y4	Z4	X5	Y5	Z5	X6	Y6	Z6	X7	Y7	Z7	X8	Y8	Z8	X9	Y9	Z9	X10	Y10	Z10	X11	Y11	Z11	X12	Y12	Z12	X13	Y13	Z13	X14	Y14	Z14	X15	Y15	Z15	X16	Y16	Z16	X17	Y17	Z17	X18	Y18	Z18	X19	Y19	Z19	X20	Y20	Z20	X21	Y21	Z21	X22	Y22	Z22	X23	Y23	Z23	X24	Y24	Z24	X25	Y25	Z25	X26	Y26	Z26	X27	Y27	Z27	X28	Y28	Z28	X29	Y29	Z29	X30	Y30	Z30	X31	Y31	Z31	X32	Y32	Z32	X33	Y33	Z33	X34	Y34	Z34	X35	Y35	Z35	X36	Y36	Z36	X37	Y37	Z37	X38	Y38	Z38	X39	Y39	Z39	X40	Y40	Z40	X41	Y41	Z41	X42	Y42	Z42	X43	Y43	Z43	X44	Y44	Z44	X45	Y45	Z45	X46	Y46	Z46	X47	Y47	Z47	X48	Y48	Z48	X49	Y49	Z49	X50	Y50	Z50	X51	Y51	Z51	X52	Y52	Z52	X53	Y53	Z53	X54	Y54	Z54	X55	Y55	Z55	X56	Y56	Z56	X57	Y57	Z57	X58	Y58	Z58	X59	Y59	Z59

439	2.195	516.7	1469.9	-63.176	464.22	1341.1	10.327	423.51	1065.7	8.9154	436.86	1239.1	143.61	413.6	864.61	-28.608	404.56	885.47	68.251	786.13	361.25	-56.218	764.15	777.99	283.62	931.47	76.073	-110.83	708.06	450.48	-127.21	687.42	1438.3	-44.119	758.7	826.72	242.44	651.07	644.1	-154.01	510.04	1107	-234.05	519.85	1479.9	60.239	544.08	931.97	216.99	425.37	968.25	-182.1	567.55	1124.4	247.28	635.93	867.44	288.65	581.36	1251.9	14.993	496.64	543.06	184.31	535.94	1274.8	163.75	533.52	1274.8	-152.94	704.64	781.9	265.49	586.2	630.16	173.64	472.78	753.77	-294.24	511.79	710.38	-316.25	695.32	1447.9	32.364	477	319.09	73.59	462.84	873.56	-281.67	579.55	983.77	290.58	434.3	232.38	144.97	320.23	47.349	99.271	516.73	633.63	209.82	448.22	231.09	74.475	530.4	23.076	51.99	430.86	138.77	68.796	470.09	40.199	44.227	488.45	443.59	162.87	537.86	716.73	235.62	455.3	32.14	103.58	455.62	996.41	-249.75	807.19	271.68	-56.128	385.13	66.195	118.09	643.25	1148.4	11.688	616.28	842.59	-141.3	845.96	188.88	-55.257	541.51	742.72	-268.81	690.69	560.75	-134.91	635.65	863.75	156.9	835.78	78.186	-96.355	606.16	724.41	-174.55	948.42	103.8	-60.545	376.86	72.44	35.352	813.19	29.012	-49.179	701.16	682.86	-115.98	778.05	262.07	-120.41	860	91.67	-22.213	994.34	107.82	-78.544
440	2.2	522.73	1468.9	-64.423	469.68	1340.4	9.4302	429.09	1064.7	7.9588	442.08	1238.2	142.78	419.28	863.84	-29.664	409.81	884.65	67.418	792.25	361.13	-55.962	770.43	777.42	283.37	940.94	77.764	-110.82	713.5	449.82	-127.21	693.19	1437	-45.102	764.94	826.21	241.1	656.12	642.95	-154.08	515.48	1105.8	-234.61	525.67	1478.9	59.3	550.29	931.31	216.4	431.18	966.94	-182.32	573.51	1123.8	246.24	642.31	867.42	288.3	586.85	1250.8	13.993	500.74	542.64	183.6	541.19	1274.2	163.01	539.35	1273.3	-153.17	710.99	781.3	264.57	590.72	629.26	173.82	477.05	752.88	-294.83	516.2	709.09	-317.03	701.09	1446.6	31.441	480.07	318.75	73.005	467.54	872.41	-282.15	585.93	982.98	289.71	436.4	232.28	144.52	320.34	48.248	98.891	520.91	632.91	209.77	450.13	230.86	74.085	530.43	23.132	51.975	432.01	138.61	68.121	470.19	40.168	44.047	492.09	443.08	162.4	542.49	716.05	235.66	455.33	32.268	103.17	461.25	995.27	-250.25	814.56	271.9	-56.099	385.6	66.839	117.46	648.72	1147.5	10.835	622.55	841.52	-141.37	853.82	189.6	-55.191	546.19	741.25	-269.63	695.53	559.72	-134.57	641.03	862.96	156.12	845.21	78.674	-96.645	611.18	723.08	-174.59	957.4	105.33	-60.332	377.4	72.773	34.801	822.66	29.169	-49.684	706.63	681.77	-116.53	785.58	262	-120.56	868.58	92.296	-22.408	1003.4	109.86	-77.893
441	2.205	528.54	1467.8	-65.47	475.14	1339.4	8.242	434.66	1063.7	7.2522	447.52	1237.4	141.73	424.96	863.02	-30.635	415.29	883.79	66.42	798.07	360.95	-55.805	777.02	777.32	282.01	949.53	78.799	-110.53	718.89	449.1	-127.08	699.17	1435.7	-46.209	771.12	825.62	239.67	661.2	642.05	-154.19	521.31	1104.7	-235.46	531.65	1478	58.293	556.38	930.52	215.81	437.11	965.74	-182.72	579.45	1123.3	245.3	648.79	866.78	287.51	592.44	1249.9	13.099	504.98	542	183.05	546.49	1273.1	161.96	545.13	1271.9	-153.49	717.23	780.56	263.71	595.13	628.34	174.09	481.63	751.73	-295.88	520.65	707.88	-317.83	706.72	1445.1	30.571	482.78	318.09	72.6	472.56	871.24	-282.64	592.52	982.47	289.14	438.15	232.19	144.22	320.42	49.222	98.263	524.88	632.3	209.02	452.17	230.66	73.364	530.51	23.143	51.889	432.86	138.52	67.663	470.4	40.596	43.8	495.59	442.34	162.11	546.95	715.31	235.72	455.34	32.416	102.71	466.53	993.99	-250.76	821.26	271.85	-55.993	385.99	67.137	116.7	654.16	1146.5	10.065	628.98	840.39	-140.98	861.21	189.94	-54.949	550.84	740.04	-270.35	700.47	558.68	-134.32	646.65	862.15	155.17	853.92	78.894	-96.763	616.33	722.23	-174.76	965.78	106.57	-59.9	377.81	73.123	34.306	831.38	29.104	-50.253	712.01	680.9	-117.25	792.99	261.9	-120.65	876.68	92.717	-22.352	1012	111.32	-76.94
442	2.21	534.53	1466.9	-66.443	480.68	1338.6	7.0056	440.24	1062.6	6.645	452.83	1236.6	140.71	430.67	862.02	-31.457	420.8	882.91	65.201	804.2	360.57	-55.641	783.56	776.91	280.44	957.39	79.34	-109.87	724.32	447.94	-126.68	704.85	1434.5	-47.203	777.48	825.21	238.43	666.25	641.18	-154.17	526.86	1103.5	-236.19	537.31	1476.8	57.063	562.11	929.57	215.36	442.72	964.85	-183.18	584.93	1122.5	244.1	655.12	866.72	286.79	597.8	1249	12.234	509.17	541.32	182.76	552.08	1272.3	160.8	550.67	1270.9	-154.61	723.61	780.15	262.96	599.4	627.41	174.31	486.43	750.8	-296.52	525.22	706.72	-318.55	712.65	1443.8	29.545	485.59	317.49	72.148	477.77	870.22	-283.26	599.1	982.04	288.38	440.46	232.65	144.05	320.2	50.406	97.545	529.14	631.39	208.33	454.25	230.17	73.151	530.57	23.156	51.783	433.98	138.51	67.122	470.6	40.724	43.366	499.42	441.34	162.04	551.15	714.47	235.74	455.43	32.623	102.31	471.95	992.79	-251.08	827.7	271.67	-55.916	386.31	67.065	115.84	659.68	1145.8	9.5575	635.1	839.33	-140.75	868.26	189.88	-54.677	555.35	738.75	-270.99	706.37	558.79	-134.65	652.29	861.3	154	862.03	78.953	-96.778	621.4	721.39	-174.97	973.53	107.22	-59.702	378.2	73.621	33.878	839.5	29.033	-50.337	717.55	680.13	-118	799.97	261.71	-120.62	884.14	93.024	-22.329	1019.7	112.3	-76.122
